# xmcd CD database file
#
# Track frame offsets:
#	150
#	28908
#	45415
#	54599
#	64647
#	83948
#	104582
#	118198
#	134655
#	150806
#	163920
#	179197
#	194376
#	212193
#
# Disc length: 3021 seconds
#
# Revision: 0
# Processed by: cddbd v1.5.2PL0 Copyright (c) Steve Scherf et al.
# Submitted via: CDex 1.51
#
DISCID=d00bcb0e
DTITLE=Various Artist - La Fiesta de Cuba Libre
DYEAR=1900
DGENRE=Salsa
TTITLE0=TATTOO - Bacardi
TTITLE1=LOU BEGA - Mambo No. 5
TTITLE2=NANCY EMES - Eso Beso
TTITLE3=PANCH Y LA SONORA COLORADA - Cachete, Pechito y Ombligo
TTITLE4=SANTANA - Oye Como Va
TTITLE5=LOS FABULOSOS CADILACS - El Matador
TTITLE6=DOS MORENOS - The Speek Up Mambo
TTITLE7=JOSE FELICIANO - Guantanamera
TTITLE8=ORQUESTA ARAGON - Cubita Cubera
TTITLE9=VAYA CON DIOS - Nah Neh Nah
TTITLE10=DOS MORENOS - La Banana
TTITLE11=ARA KETU - Placeres De Amor
TTITLE12=POLO MONTANEZ - Un Bolero
TTITLE13=AZUCAR MORENO - No Tendre Piedad
EXTD=
EXTT0=
EXTT1=
EXTT2=
EXTT3=
EXTT4=
EXTT5=
EXTT6=
EXTT7=
EXTT8=
EXTT9=
EXTT10=
EXTT11=
EXTT12=
EXTT13=
PLAYORDER=
